<svg width="34" height="28" viewBox="0 0 34 28" fill="none" xmlns="http://www.w3.org/2000/svg">
<path d="M24.9167 26.6666H32.8334V23.5C32.8333 22.5128 32.5257 21.5502 31.9533 20.746C31.3809 19.9417 30.5721 19.3358 29.6394 19.0124C28.7067 18.689 27.6965 18.6643 26.7491 18.9416C25.8017 19.2189 24.9642 19.7845 24.3531 20.5597M24.9167 26.6666H9.08341M24.9167 26.6666V23.5C24.9167 22.4613 24.7172 21.4686 24.3531 20.5597M24.3531 20.5597C23.7651 19.0903 22.7504 17.8308 21.4397 16.9436C20.1291 16.0564 18.5828 15.5822 17.0001 15.5822C15.4174 15.5822 13.871 16.0564 12.5604 16.9436C11.2498 17.8308 10.2351 19.0903 9.64708 20.5597M9.08341 26.6666H1.16675V23.5C1.16682 22.5128 1.47445 21.5502 2.04686 20.746C2.61928 19.9417 3.42804 19.3358 4.36073 19.0124C5.29341 18.689 6.30368 18.6643 7.25108 18.9416C8.19849 19.2189 9.03596 19.7845 9.64708 20.5597M9.08341 26.6666V23.5C9.08341 22.4613 9.28291 21.4686 9.64708 20.5597M21.7501 6.08331C21.7501 7.34309 21.2496 8.55127 20.3588 9.44207C19.468 10.3329 18.2599 10.8333 17.0001 10.8333C15.7403 10.8333 14.5321 10.3329 13.6413 9.44207C12.7505 8.55127 12.2501 7.34309 12.2501 6.08331C12.2501 4.82353 12.7505 3.61535 13.6413 2.72456C14.5321 1.83376 15.7403 1.33331 17.0001 1.33331C18.2599 1.33331 19.468 1.83376 20.3588 2.72456C21.2496 3.61535 21.7501 4.82353 21.7501 6.08331ZM31.2501 10.8333C31.2501 11.6732 30.9164 12.4786 30.3226 13.0725C29.7287 13.6663 28.9233 14 28.0834 14C27.2436 14 26.4381 13.6663 25.8442 13.0725C25.2504 12.4786 24.9167 11.6732 24.9167 10.8333C24.9167 9.99346 25.2504 9.18801 25.8442 8.59414C26.4381 8.00028 27.2436 7.66665 28.0834 7.66665C28.9233 7.66665 29.7287 8.00028 30.3226 8.59414C30.9164 9.18801 31.2501 9.99346 31.2501 10.8333ZM9.08341 10.8333C9.08341 11.6732 8.74978 12.4786 8.15592 13.0725C7.56205 13.6663 6.7566 14 5.91675 14C5.0769 14 4.27144 13.6663 3.67758 13.0725C3.08371 12.4786 2.75008 11.6732 2.75008 10.8333C2.75008 9.99346 3.08371 9.18801 3.67758 8.59414C4.27144 8.00028 5.0769 7.66665 5.91675 7.66665C6.7566 7.66665 7.56205 8.00028 8.15592 8.59414C8.74978 9.18801 9.08341 9.99346 9.08341 10.8333Z" stroke="#444BAB" stroke-width="2" stroke-linecap="round" stroke-linejoin="round"/>
</svg>
