<svg width="50" height="56" viewBox="0 0 50 56" fill="none" xmlns="http://www.w3.org/2000/svg">
<path d="M24.5469 0.574554C24.3883 0.631195 22.2473 1.68471 19.7891 2.91948L15.3145 5.17377L9.08398 5.23042L2.85352 5.28706L2.21914 5.58158C1.3582 5.9894 0.7125 6.60112 0.338672 7.3601L0.0214844 8.00581V25.0546V42.1035L0.282031 42.6246C0.689844 43.4628 1.26758 44.0406 2.09453 44.4484L2.85352 44.8222L10.7492 44.8562L18.6562 44.8902V49.0136V53.1484H16.402C14.193 53.1484 14.159 53.1484 13.8645 53.4203C13.2414 53.998 13.4113 55.0402 14.1816 55.3687C14.7594 55.6066 35.2406 55.6066 35.8184 55.3687C36.5887 55.0402 36.7586 53.998 36.1355 53.4203C35.841 53.1484 35.807 53.1484 33.598 53.1484H31.3438V49.0136V44.8902L39.2508 44.8562L47.1465 44.8222L47.9055 44.4484C48.7324 44.0406 49.3102 43.4628 49.718 42.6246L49.9785 42.1035V25.0546V8.00581L49.6613 7.3601C49.2875 6.60112 48.6418 5.9894 47.7809 5.58158L47.1465 5.28706L40.916 5.23042L34.6855 5.17377L30.143 2.88549C27.6395 1.62807 25.4305 0.574554 25.2152 0.540573C25 0.506588 24.7055 0.529243 24.5469 0.574554ZM31.627 6.2726C35.2746 8.09643 38.2539 9.6144 38.2539 9.64838C38.2539 9.68237 35.2746 11.2003 31.627 13.0242L25 16.332L18.373 13.0242C14.7254 11.2003 11.7461 9.68237 11.7461 9.64838C11.7461 9.60307 24.8188 3.0101 24.966 2.97612C24.9887 2.96479 27.9793 4.4601 31.627 6.2726ZM9.80898 7.89252C8.85742 8.37963 8.44961 9.12729 8.61953 10.0449C8.75547 10.7585 9.20859 11.1097 11.3949 12.1972L13.434 13.2054L13.468 17.3515L13.502 21.5089L13.8418 22.064C14.3629 22.9023 14.918 23.1855 16.7305 23.514C19.7891 24.0691 21.2957 24.1937 25 24.1937C28.7043 24.1937 30.2109 24.0691 33.2695 23.514C35.082 23.1855 35.6371 22.9023 36.1582 22.064L36.498 21.5089L36.532 17.3515L36.566 13.2054L37.0645 12.9562L37.5629 12.7183L37.5969 16.5585L37.6309 20.3874L37.9027 20.682C38.2426 21.0445 38.8203 21.1691 39.2848 20.9765C39.9418 20.7046 39.9531 20.6253 39.9531 15.8449V11.4835L40.293 11.3476C40.7688 11.155 41.2898 10.5206 41.3805 10.0449C41.5504 9.12729 41.1426 8.37963 40.191 7.89252L39.6699 7.62065L43.0457 7.60932C46.7953 7.60932 47.0219 7.64331 47.4297 8.31166C47.6562 8.68549 47.6562 8.84409 47.6562 22.9249V37.1757H25H2.34375V22.9249C2.34375 8.84409 2.34375 8.68549 2.57031 8.31166C2.97813 7.64331 3.1707 7.62065 6.93164 7.62065H10.3301L9.80898 7.89252ZM25 18.7109C25.5098 18.7109 25.9969 18.4956 29.8711 16.5585L34.1758 14.4062V17.6234V20.8406L33.8133 20.9652C33.3828 21.1011 31.1512 21.4636 29.418 21.6789C27.8434 21.8714 22.1566 21.8714 20.582 21.6789C18.9508 21.4863 16.6398 21.1011 16.198 20.9652L15.8242 20.8406V17.6234V14.4062L20.1289 16.5585C24.0031 18.4956 24.4902 18.7109 25 18.7109ZM47.6562 40.4835C47.6562 41.5824 47.4637 42.0128 46.8293 42.3074C46.4668 42.4886 44.7902 42.4999 25 42.4999C5.20977 42.4999 3.5332 42.4886 3.1707 42.3074C2.53633 42.0128 2.34375 41.5824 2.34375 40.4835V39.5546H25H47.6562V40.4835ZM28.9648 49.0136V53.1484H25H21.0352V49.0136V44.8788H25H28.9648V49.0136Z" fill="url(#paint0_linear_2_482)"/>
<defs>
<linearGradient id="paint0_linear_2_482" x1="25" y1="55.5471" x2="25" y2="0.524208" gradientUnits="userSpaceOnUse">
<stop stop-color="#3E8EBC"/>
<stop offset="1" stop-color="#444BAB"/>
</linearGradient>
</defs>
</svg>
