<svg width="44" height="33" viewBox="0 0 44 33" fill="none" xmlns="http://www.w3.org/2000/svg">
<path d="M35.4101 2.2L16.2711 21.34L8.27714 13.348C7.43144 12.5643 6.31501 12.1388 5.16225 12.1607C4.00949 12.1827 2.91006 12.6504 2.09478 13.4656C1.27951 14.2809 0.811806 15.3804 0.78987 16.5331C0.767935 17.6859 1.19347 18.8023 1.97714 19.648L13.1191 30.8C13.9547 31.6351 15.0878 32.1043 16.2691 32.1043C17.4505 32.1043 18.5835 31.6351 19.4191 30.8L41.7151 8.506C42.155 8.09838 42.5081 7.6062 42.7534 7.05892C42.9986 6.51163 43.1309 5.92049 43.1423 5.32089C43.1537 4.72129 43.044 4.12555 42.8198 3.56933C42.5956 3.01312 42.2614 2.50785 41.8373 2.0838C41.4133 1.65974 40.908 1.3256 40.3518 1.10138C39.7956 0.87716 39.1999 0.767473 38.6003 0.778883C38.0007 0.790293 37.4095 0.922564 36.8622 1.16778C36.3149 1.413 35.8228 1.76612 35.4151 2.206L35.4101 2.2Z" fill="url(#paint0_linear_2_1162)"/>
<defs>
<linearGradient id="paint0_linear_2_1162" x1="21.9661" y1="0.778076" x2="21.9661" y2="32.1043" gradientUnits="userSpaceOnUse">
<stop stop-color="#3E8EBC"/>
<stop offset="1" stop-color="#444BAB"/>
</linearGradient>
</defs>
</svg>
