<svg width="58" height="58" viewBox="0 0 58 58" fill="none" xmlns="http://www.w3.org/2000/svg">
<path d="M28.5461 0.532446C26.4051 0.713696 24.4793 2.28831 23.8902 4.36135C23.6863 5.08635 23.6863 6.58167 23.8902 7.30666C24.5359 9.58362 26.5863 11.1129 28.9992 11.1129C30.4945 11.1129 31.7066 10.6258 32.7035 9.62893C33.7797 8.55276 34.2668 7.37463 34.2668 5.83401C34.2668 4.29338 33.7797 3.11526 32.7035 2.03909C31.65 0.985571 30.0641 0.407837 28.5461 0.532446ZM30.3246 3.65901C30.9363 4.04416 31.2308 4.44065 31.4461 5.17698C31.5933 5.68674 31.6047 5.89065 31.4914 6.32112C31.3215 7.04612 30.9023 7.63518 30.3246 8.00901C29.9168 8.28088 29.7355 8.3262 28.9992 8.3262C28.2629 8.3262 28.0816 8.28088 27.6738 8.00901C27.0961 7.63518 26.6769 7.04612 26.507 6.32112C26.2691 5.35823 26.8016 4.12346 27.6852 3.64768C28.2629 3.33049 28.4555 3.29651 29.1805 3.33049C29.6676 3.35315 29.9961 3.4551 30.3246 3.65901Z" fill="url(#paint0_linear_2_453)"/>
<path d="M25.4316 12.0758C23.4039 12.4722 21.4441 13.9789 20.5152 15.8594C19.9602 17.0035 19.7109 18.057 19.7109 19.3937C19.7109 20.3226 19.7336 20.4133 20.0281 20.7418C20.2434 20.9797 20.5039 21.1269 20.8437 21.1949C21.127 21.2402 24.7973 21.2855 29 21.2855C33.2027 21.2855 36.873 21.2402 37.1562 21.1949C37.4961 21.1269 37.7566 20.9797 37.9719 20.7418C38.2664 20.4133 38.2891 20.3226 38.2891 19.3937C38.2891 18.057 38.0398 17.0035 37.4848 15.8594C36.5332 13.9336 34.5848 12.4609 32.4777 12.0644C31.2996 11.8379 26.5758 11.8492 25.4316 12.0758ZM31.3789 14.7265C33.248 14.9984 34.9699 16.4824 35.2984 18.1023L35.3777 18.4648H29H22.6336L22.7016 18.1023C23.0187 16.5277 24.7746 14.9871 26.5191 14.7265C27.3914 14.6019 30.518 14.6019 31.3789 14.7265Z" fill="url(#paint1_linear_2_453)"/>
<path d="M40.7006 14.0469C40.0889 14.4094 39.8396 15.123 40.0889 15.7801C40.1568 15.9387 40.6779 16.4484 41.2557 16.9129C43.2607 18.5328 44.4955 19.8582 45.6963 21.6707C47.7014 24.718 48.7889 28.0598 49.0041 31.7754C49.0834 33.2141 49.2533 33.6672 49.7857 33.9164C50.2502 34.143 50.5561 34.143 51.0205 33.9277C51.7002 33.5992 51.8135 33.2367 51.7342 31.5602C51.5076 26.7344 49.6725 21.9766 46.5686 18.193C45.7643 17.2187 43.9178 15.4289 42.9889 14.7152C41.7541 13.775 41.3463 13.6504 40.7006 14.0469Z" fill="url(#paint2_linear_2_453)"/>
<path d="M14.7379 14.9645C14.1941 15.293 12.1098 17.3547 11.2941 18.3516C8.16758 22.2258 6.23047 27.4934 6.23047 32.1492C6.23047 33.2367 6.40039 33.6559 6.97813 33.9277C7.44258 34.143 7.74844 34.143 8.21289 33.9164C8.68867 33.6898 8.94922 33.1574 8.94922 32.4098C8.94922 30.6766 9.49297 27.7879 10.15 25.9414C11.3395 22.6789 13.2426 19.9488 16.1539 17.3094C16.8449 16.6977 16.9809 16.2445 16.709 15.5422C16.3918 14.7719 15.4856 14.5 14.7379 14.9645Z" fill="url(#paint3_linear_2_453)"/>
<path d="M8.55234 36.8277C5.89023 37.1223 3.95312 39.3312 3.95312 42.084C3.95312 45.0859 6.20742 47.3629 9.17539 47.3629C10.7387 47.3629 11.9168 46.8871 12.9703 45.8223C14.0238 44.7801 14.4996 43.6133 14.4996 42.084C14.4996 40.2262 13.684 38.6742 12.1773 37.6773C11.1012 36.9637 9.92304 36.6805 8.55234 36.8277ZM10.1723 39.7164C11.8941 40.4301 12.3133 42.6504 10.9766 43.9191C9.35664 45.4598 6.6832 44.3156 6.6832 42.084C6.6832 40.3055 8.55234 39.0367 10.1723 39.7164Z" fill="url(#paint4_linear_2_453)"/>
<path d="M48.0879 36.8391C46.0148 37.0769 44.2703 38.5496 43.6699 40.5887C43.5793 40.9059 43.5 41.5742 43.5 42.084C43.5 43.6133 43.9758 44.7801 45.0293 45.8223C46.0828 46.8871 47.2609 47.3629 48.8242 47.3629C51.7922 47.3629 54.0465 45.0859 54.0465 42.084C54.0465 38.8102 51.3844 36.4539 48.0879 36.8391ZM49.7871 39.7504C51.8148 40.6793 51.8148 43.4887 49.7871 44.4176C48.1785 45.1539 46.2301 43.8965 46.2187 42.1066C46.2074 40.2941 48.1559 39.0027 49.7871 39.7504Z" fill="url(#paint5_linear_2_453)"/>
<path d="M5.72017 48.3031C3.44321 48.8242 1.73267 50.1383 0.758449 52.132C0.135402 53.4008 -0.0231918 54.1711 0.0221207 55.7344L0.056105 56.9125L0.429933 57.1617C0.633839 57.309 1.06431 57.4449 1.39282 57.4902C1.72134 57.5242 5.47095 57.5469 9.74165 57.5242C16.901 57.4902 17.5354 57.4789 17.8639 57.2863C18.4417 56.9805 18.4983 56.7652 18.4417 55.1793C18.3963 54.0125 18.3284 53.616 18.1018 52.993C17.2975 50.8293 15.7569 49.3227 13.5932 48.5523L12.6303 48.2012L9.51509 48.1785C7.21548 48.1559 6.2186 48.1898 5.72017 48.3031ZM11.6674 50.9766C13.5026 51.2711 15.1565 52.6984 15.519 54.3297L15.6096 54.7148H9.22056H2.8315L2.89946 54.3977C3.26196 52.7891 4.99517 51.2258 6.70571 50.9766C7.60064 50.852 10.8292 50.852 11.6674 50.9766Z" fill="url(#paint6_linear_2_453)"/>
<path d="M45.2551 48.3031C42.7062 48.8809 40.8144 50.5348 39.8969 52.993C39.6703 53.616 39.6023 54.0125 39.557 55.1793C39.5004 56.7652 39.557 56.9805 40.1348 57.2863C40.4633 57.4789 41.0976 57.4902 48.257 57.5242C52.5277 57.5469 56.2773 57.5242 56.6059 57.4902C56.9344 57.4449 57.3648 57.309 57.5688 57.1617L57.9426 56.9125L57.9766 55.7344C58.0219 54.341 57.8746 53.4574 57.4328 52.4832C56.5492 50.5348 55.1219 49.2434 53.0715 48.5297C52.1766 48.2125 52.1312 48.2125 49.05 48.1785C46.7504 48.1559 45.7535 48.1898 45.2551 48.3031ZM51.191 50.9766C53.0148 51.2371 54.7254 52.7438 55.0992 54.3977L55.1672 54.7148H48.7781H42.3891L42.4797 54.3297C42.8308 52.7551 44.4961 51.2711 46.218 50.9879C47.0562 50.852 50.2961 50.8406 51.191 50.9766Z" fill="url(#paint7_linear_2_453)"/>
<path d="M21.6934 51.8148C21.1269 52.0641 20.8777 52.5965 20.9344 53.4234C20.9684 53.8539 21.5008 54.2391 22.475 54.5336C26.6211 55.8023 31.107 55.8137 35.457 54.5789C36.7598 54.2051 37.1789 53.8426 37.1789 53.0496C37.1789 52.4606 36.9523 52.0301 36.5332 51.8375C36.0234 51.5883 35.6836 51.6109 34.5508 51.9395C31.0051 52.9816 27.1195 52.9816 23.4492 51.9281C22.3617 51.6223 22.1691 51.6109 21.6934 51.8148Z" fill="url(#paint8_linear_2_453)"/>
<defs>
<linearGradient id="paint0_linear_2_453" x1="29.002" y1="11.1129" x2="29.002" y2="0.515703" gradientUnits="userSpaceOnUse">
<stop stop-color="#3E8EBC"/>
<stop offset="1" stop-color="#444BAB"/>
</linearGradient>
<linearGradient id="paint1_linear_2_453" x1="29" y1="21.2855" x2="29" y2="11.9001" gradientUnits="userSpaceOnUse">
<stop stop-color="#3E8EBC"/>
<stop offset="1" stop-color="#444BAB"/>
</linearGradient>
<linearGradient id="paint2_linear_2_453" x1="45.8746" y1="34.0878" x2="45.8746" y2="13.8347" gradientUnits="userSpaceOnUse">
<stop stop-color="#3E8EBC"/>
<stop offset="1" stop-color="#444BAB"/>
</linearGradient>
<linearGradient id="paint3_linear_2_453" x1="11.5352" y1="34.0878" x2="11.5352" y2="14.7366" gradientUnits="userSpaceOnUse">
<stop stop-color="#3E8EBC"/>
<stop offset="1" stop-color="#444BAB"/>
</linearGradient>
<linearGradient id="paint4_linear_2_453" x1="9.22636" y1="47.3629" x2="9.22636" y2="36.7899" gradientUnits="userSpaceOnUse">
<stop stop-color="#3E8EBC"/>
<stop offset="1" stop-color="#444BAB"/>
</linearGradient>
<linearGradient id="paint5_linear_2_453" x1="48.7732" y1="47.3629" x2="48.7732" y2="36.7978" gradientUnits="userSpaceOnUse">
<stop stop-color="#3E8EBC"/>
<stop offset="1" stop-color="#444BAB"/>
</linearGradient>
<linearGradient id="paint6_linear_2_453" x1="9.23688" y1="57.5333" x2="9.23688" y2="48.1719" gradientUnits="userSpaceOnUse">
<stop stop-color="#3E8EBC"/>
<stop offset="1" stop-color="#444BAB"/>
</linearGradient>
<linearGradient id="paint7_linear_2_453" x1="48.7621" y1="57.5333" x2="48.7621" y2="48.1719" gradientUnits="userSpaceOnUse">
<stop stop-color="#3E8EBC"/>
<stop offset="1" stop-color="#444BAB"/>
</linearGradient>
<linearGradient id="paint8_linear_2_453" x1="29.0527" y1="55.4952" x2="29.0527" y2="51.6693" gradientUnits="userSpaceOnUse">
<stop stop-color="#3E8EBC"/>
<stop offset="1" stop-color="#444BAB"/>
</linearGradient>
</defs>
</svg>
