<svg width="58" height="58" viewBox="0 0 58 58" fill="none" xmlns="http://www.w3.org/2000/svg">
<g clip-path="url(#clip0_2_446)">
<path d="M26.4289 0.124664C23.6422 0.555134 20.7988 1.73326 18.5106 3.43248C17.4344 4.22544 15.5992 6.10592 14.8063 7.21607C13.4582 9.1192 12.3934 11.5547 11.8723 13.979C11.5098 15.6555 11.5098 19.1333 11.8836 20.8438C12.6426 24.3782 14.1606 27.1989 16.7094 29.7477C18.25 31.2997 19.6547 32.2965 21.5352 33.1801C23.1551 33.9391 23.5742 34.0524 24.0274 33.8711C24.6391 33.6106 24.8203 32.7723 24.3899 32.2626C24.2992 32.1606 23.8235 31.9114 23.3363 31.7188C22.3281 31.311 20.7649 30.4501 19.9153 29.8157L19.3488 29.3965L19.4055 28.2524C19.5074 26.4739 20.0512 25.0465 21.1613 23.6985C21.6145 23.1434 22.7246 22.2825 23.4156 21.9426L23.9028 21.7047L24.775 22.1692C26.3043 22.9735 27.1086 23.1661 29.0004 23.1661C30.8922 23.1661 31.6965 22.9735 33.2258 22.1692L34.0981 21.7047L34.5852 21.9426C35.2762 22.2825 36.3863 23.1434 36.8395 23.6985C37.9496 25.0465 38.4934 26.4739 38.5953 28.2524L38.652 29.3965L37.927 29.929C37.0547 30.5633 35.8199 31.243 34.6645 31.7188C33.5656 32.1719 33.4184 32.3192 33.4184 32.9309C33.4184 33.8598 34.0414 34.1543 35.1516 33.7579C39.5582 32.1606 43.4777 28.309 45.2449 23.8458C46.7289 20.0508 46.8422 15.5876 45.5168 11.7247C43.8289 6.76294 39.8867 2.76412 34.891 0.962944C33.0106 0.294586 31.8438 0.0906792 29.3969 0.056694C28.1508 0.0340385 26.8141 0.0680237 26.4289 0.124664ZM31.6625 2.22037C35.3555 2.83209 38.9692 5.0524 41.2914 8.14498C42.1977 9.3231 43.3985 11.7133 43.7723 13.0501C44.5879 15.9047 44.5879 18.884 43.7723 21.7274C43.3758 23.1094 42.2996 25.2731 41.382 26.4852L40.6117 27.5161L40.5324 26.9044C40.2039 24.4122 38.4141 21.7501 36.2051 20.4473L35.6953 20.1528L36.0918 19.643C36.5789 18.9973 37.202 17.7059 37.4512 16.8223C37.7231 15.8368 37.7797 13.7297 37.5758 12.7215C37.1906 10.943 36.477 9.62896 35.1176 8.26959C34.3926 7.54459 33.9281 7.18209 33.2485 6.83091C31.7305 6.04927 31.0621 5.86802 29.3969 5.81138C27.4938 5.74341 26.6215 5.91334 25.0356 6.69498C24.0047 7.20474 23.7102 7.41998 22.8153 8.32623C21.909 9.23248 21.7051 9.50435 21.2067 10.5352C20.4363 12.1438 20.2324 13.118 20.3117 14.8852C20.391 16.7997 20.9008 18.3063 21.909 19.6317L22.3055 20.1528L21.7957 20.4473C19.5867 21.7387 17.7969 24.4122 17.4684 26.9044L17.3891 27.5161L16.6867 26.5872C15.3727 24.854 14.4211 22.7469 13.9227 20.504C13.5375 18.7934 13.5375 15.984 13.9113 14.2848C14.6137 11.1469 15.9164 8.77935 18.182 6.51373C21.807 2.8774 26.5535 1.37076 31.6625 2.22037ZM30.3824 7.94107C32.2742 8.32623 34.1434 9.79888 34.9817 11.5661C35.9559 13.6051 35.9445 15.4856 34.925 17.5586C34.1207 19.2126 32.2176 20.6852 30.3824 21.059C26.293 21.8973 22.3168 18.6915 22.3168 14.534C22.3168 13.4012 22.4867 12.6762 23.0192 11.5661C23.8348 9.84419 25.5906 8.42818 27.4371 7.97506C28.1961 7.7938 29.6008 7.78248 30.3824 7.94107Z" fill="url(#paint0_linear_2_446)"/>
<path d="M10.1953 29.3173C9.84414 29.4985 9.62891 29.8497 8.38281 32.2966L6.9668 35.0606L4.07812 35.4685C2.32227 35.7177 1.03086 35.9556 0.815625 36.0688C0.283203 36.3407 0 36.8618 0 37.5868C0 37.9153 0.0566406 38.3005 0.124609 38.4364C0.192578 38.5724 1.20078 39.6032 2.35625 40.736L4.46328 42.7751L3.9875 45.6071C3.72695 47.1591 3.51172 48.5298 3.51172 48.6431C3.51172 49.0962 3.96484 49.7985 4.40664 50.0478C5.24492 50.5235 5.52812 50.4442 8.48477 48.9263L11.1582 47.5556L13.6504 48.8696C16.4031 50.3196 16.7656 50.4216 17.2754 49.9005C17.6492 49.538 17.6605 48.9376 17.3094 48.5638C17.0375 48.2692 11.8266 45.5165 11.2941 45.3806C11.0449 45.3239 10.5012 45.5505 8.32617 46.672C6.86484 47.4196 5.66406 48.02 5.66406 48.0087C5.66406 47.986 5.86797 46.7966 6.11719 45.3692C6.36641 43.9306 6.57031 42.5825 6.57031 42.3446C6.57031 41.9595 6.4457 41.8122 4.45195 39.8864C3.29648 38.7536 2.36758 37.8134 2.39023 37.7907C2.41289 37.7794 3.65898 37.5868 5.1543 37.3829C6.64961 37.179 8.00898 36.9411 8.19023 36.8505C8.43945 36.7259 8.76797 36.1481 9.82148 34.0638L11.1355 31.4356L12.4496 34.0751C13.1973 35.5931 13.8543 36.7712 13.9902 36.8505C14.2281 36.9751 19.8469 37.8247 20.5266 37.836C21.093 37.836 21.2742 37.7454 21.4668 37.3716C21.7047 36.9185 21.682 36.5333 21.3762 36.1821C21.127 35.8989 20.9797 35.8649 18.2043 35.4571C16.607 35.2306 15.2703 35.0153 15.2363 34.9813C15.2023 34.9474 14.5906 33.7466 13.877 32.3079C12.7668 30.0536 12.5289 29.6571 12.1551 29.4079C11.634 29.0454 10.7844 29.0114 10.1953 29.3173Z" fill="url(#paint1_linear_2_446)"/>
<path d="M45.8565 29.3965C45.494 29.6344 45.2561 30.0649 44.1346 32.3418C43.421 33.8031 42.8206 35.0039 42.7979 35.0153C42.7753 35.0153 41.4499 35.2078 39.8413 35.4457C36.6241 35.9215 36.5335 35.9555 36.4089 36.7145C36.3069 37.2922 36.7827 37.836 37.3604 37.836C38.0741 37.8246 43.7948 36.9637 44.0553 36.8164C44.2253 36.7258 44.735 35.8196 45.5846 34.0637L46.8647 31.4356L48.1788 34.0524C48.8925 35.4797 49.5608 36.7258 49.6628 36.8051C49.7647 36.8844 51.0901 37.1336 52.6987 37.3602C54.2733 37.5754 55.5874 37.7793 55.61 37.7906C55.6327 37.8133 54.7038 38.7535 53.537 39.8863C51.5206 41.8574 51.43 41.9594 51.43 42.3785C51.43 42.741 52.0077 46.3434 52.2909 47.7254C52.3589 48.0426 52.2796 48.0086 49.6854 46.6719C47.4764 45.5391 46.9667 45.3238 46.7061 45.3805C46.151 45.5278 40.7815 48.3824 40.6116 48.6317C40.351 49.0055 40.3964 49.5832 40.7249 49.9004C41.2346 50.4215 41.5971 50.3196 44.3499 48.8696L46.8421 47.5668L47.9749 48.1332C48.5979 48.4504 49.7987 49.0621 50.637 49.5039C52.5741 50.5008 53.1858 50.5574 53.9561 49.7871C54.5678 49.1641 54.5792 48.9035 54.0241 45.6863L53.537 42.775L55.644 40.736C56.7995 39.6031 57.8077 38.5723 57.8757 38.4363C57.9436 38.3004 58.0003 37.9266 58.0003 37.5981C58.0003 36.8957 57.6944 36.3293 57.1733 36.0574C56.9694 35.9555 55.5987 35.7063 53.9221 35.4684L51.0335 35.0606L49.6175 32.2965C48.3714 29.8496 48.1561 29.4985 47.805 29.3172C47.2159 29.0113 46.3663 29.0453 45.8565 29.3965Z" fill="url(#paint2_linear_2_446)"/>
<path d="M28.1504 32.4211C27.5953 32.727 27.2555 33.2594 25.7262 36.3293L24.1062 39.5918L20.6852 40.0903C16.7996 40.6454 16.573 40.6907 16.1426 41.0305C15.7574 41.3364 15.4176 42.0727 15.4062 42.6051C15.4062 43.3301 15.848 43.8852 18.4648 46.3887C20.6852 48.5184 21.0137 48.8809 20.9797 49.1415C20.957 49.3114 20.6852 50.9426 20.368 52.7551C20.0055 54.8848 19.8242 56.2102 19.8695 56.4594C20.0508 57.3997 20.8211 58 21.852 58C22.4184 58 22.6902 57.8754 25.7375 56.2895L29.0113 54.5903L32.3078 56.3008L35.6043 58.0227L36.3066 57.9774C37.2016 57.9208 37.7227 57.5583 38.0172 56.7993C38.2437 56.1875 38.2551 56.2895 37.4621 51.7016L36.975 48.8696L39.5691 46.3774C40.9965 45.018 42.2539 43.704 42.3785 43.4774C42.9336 42.3899 42.3672 41.0418 41.2117 40.6907C41.0078 40.6227 39.2746 40.3508 37.3715 40.0903L33.9051 39.6032L32.3531 36.42C31.4922 34.6754 30.7105 33.1348 30.5973 32.9989C30.2121 32.5344 29.657 32.2852 29 32.2852C28.6602 32.2852 28.275 32.3532 28.1504 32.4211ZM32.557 41.3364C32.6703 41.427 34.1996 41.6989 36.4879 42.0387C38.5496 42.3333 40.2941 42.6051 40.3508 42.6165C40.4074 42.6391 40.1582 42.9336 39.7957 43.2735C39.4332 43.6133 38.1871 44.8141 37.0203 45.9469C34.902 47.986 34.8906 47.9973 34.8906 48.4844C34.8906 48.8696 35.8535 54.7829 36.0687 55.7684C36.1027 55.927 35.8988 55.8477 35.0832 55.4172C31.5035 53.5028 29.3512 52.4493 29 52.4493C28.6375 52.4493 28.3316 52.5965 23.5059 55.1227L21.9086 55.9497L22.5656 52.2C23.1434 48.8356 23.2 48.4165 23.0641 48.0993C22.9734 47.9067 21.7047 46.604 20.2434 45.1993C18.7707 43.7946 17.5812 42.6391 17.5926 42.6278C17.6039 42.6165 19.2691 42.3786 21.2969 42.084C23.3246 41.7895 25.1031 41.495 25.2617 41.4157C25.477 41.325 25.9414 40.4981 27.2895 37.836L29.034 34.3809L30.6992 37.7793C31.6168 39.6485 32.4437 41.2458 32.557 41.3364Z" fill="url(#paint3_linear_2_446)"/>
<path d="M28.5469 39.7844C28.3543 39.8863 28.0145 40.4187 27.4707 41.4836C27.0402 42.3332 26.6551 43.0582 26.6211 43.0809C26.5871 43.1148 25.9527 43.2281 25.2051 43.3301C23.268 43.6019 23.0301 43.6812 22.8262 44.0664C22.7355 44.2477 22.6562 44.5195 22.6562 44.6668C22.6562 45.0293 23.0301 45.4937 23.3813 45.5844C23.6984 45.6637 27.4254 45.1539 27.8332 44.9727C28.1617 44.8367 30.0195 41.1664 30.0195 40.6793C30.0195 39.9883 29.1699 39.4672 28.5469 39.7844Z" fill="url(#paint4_linear_2_446)"/>
</g>
<defs>
<linearGradient id="paint0_linear_2_446" x1="29.0206" y1="33.9467" x2="29.0206" y2="0.0495987" gradientUnits="userSpaceOnUse">
<stop stop-color="#3E8EBC"/>
<stop offset="1" stop-color="#444BAB"/>
</linearGradient>
<linearGradient id="paint1_linear_2_446" x1="10.8138" y1="50.3058" x2="10.8138" y2="29.1098" gradientUnits="userSpaceOnUse">
<stop stop-color="#3E8EBC"/>
<stop offset="1" stop-color="#444BAB"/>
</linearGradient>
<linearGradient id="paint2_linear_2_446" x1="47.1976" y1="50.3144" x2="47.1976" y2="29.1086" gradientUnits="userSpaceOnUse">
<stop stop-color="#3E8EBC"/>
<stop offset="1" stop-color="#444BAB"/>
</linearGradient>
<linearGradient id="paint3_linear_2_446" x1="28.9998" y1="58.0227" x2="28.9998" y2="32.2852" gradientUnits="userSpaceOnUse">
<stop stop-color="#3E8EBC"/>
<stop offset="1" stop-color="#444BAB"/>
</linearGradient>
<linearGradient id="paint4_linear_2_446" x1="26.3379" y1="45.5927" x2="26.3379" y2="39.6892" gradientUnits="userSpaceOnUse">
<stop stop-color="#3E8EBC"/>
<stop offset="1" stop-color="#444BAB"/>
</linearGradient>
<clipPath id="clip0_2_446">
<rect width="58" height="58" fill="white"/>
</clipPath>
</defs>
</svg>
