<svg width="50" height="50" viewBox="0 0 50 50" fill="none" xmlns="http://www.w3.org/2000/svg">
<rect width="50" height="50" fill="#F5F5F5"/>
<g clip-path="url(#clip0_0_1)">
<rect width="1440" height="5161" transform="translate(-196 -2028)" fill="white"/>
<rect x="-196" y="-874" width="1440" height="971" fill="#444BAB" fill-opacity="0.03"/>
<circle cx="25" cy="25" r="24.5" fill="white" stroke="#E6E6E7"/>
<path d="M27.2617 9.09375C25.75 9.36914 24.4023 10.1367 23.541 11.209C23.1016 11.7598 22.6035 12.75 22.3926 13.4883C22.1172 14.4551 22.0703 15.0762 22.0703 17.7715V20.25H19.873H17.6758V22.916V25.582H19.873H22.0703V32.291V39H24.7656H27.4609V32.291V25.582L29.5527 25.5703L31.6504 25.5527L31.9492 23.1211C32.1191 21.7852 32.2656 20.5898 32.2832 20.4668L32.3125 20.25H29.8867H27.4609V18.1523C27.4609 15.8555 27.502 15.5098 27.7949 14.9648C27.9824 14.6133 28.3516 14.3262 28.7793 14.1855C29.2012 14.0449 30.0039 13.9863 31.4922 13.9805H32.793V11.584V9.1875L32.459 9.15234C30.8652 8.98242 28.0586 8.94727 27.2617 9.09375Z" fill="#8A8A8D"/>
</g>
<defs>
<clipPath id="clip0_0_1">
<rect width="1440" height="5161" fill="white" transform="translate(-196 -2028)"/>
</clipPath>
</defs>
</svg>
