<svg width="50" height="50" viewBox="0 0 50 50" fill="none" xmlns="http://www.w3.org/2000/svg">
<rect width="50" height="50" fill="#F5F5F5"/>
<g clip-path="url(#clip0_0_1)">
<rect width="1440" height="5161" transform="translate(-130 -2029)" fill="white"/>
<rect x="-130" y="-875" width="1440" height="971" fill="#444BAB" fill-opacity="0.03"/>
<circle cx="25" cy="25" r="24.5" fill="white" stroke="#E6E6E7"/>
<path d="M13.2345 9.64062C11.9923 9.96875 11.1017 10.9531 10.9259 12.1953C10.7384 13.5898 11.3888 14.8555 12.6075 15.4414C13.1935 15.7227 13.5392 15.793 14.3009 15.793C15.9474 15.793 17.1251 15.0195 17.5939 13.625C17.7638 13.1211 17.7462 12.1426 17.547 11.5977C17.1837 10.5664 16.3927 9.86328 15.3204 9.61133C14.7931 9.48828 13.7677 9.5 13.2345 9.64062Z" fill="#8A8A8D"/>
<path d="M30.9473 17.9375C29.5645 18.248 28.041 19.2207 26.9453 20.5039L26.6992 20.791V19.5195V18.2539H23.6523H20.6055V27.3359V36.418H23.6523H26.6992V31.127C26.6992 28.0039 26.7227 25.6719 26.7578 25.4316C26.8516 24.7871 27.2031 24.125 27.748 23.5801C28.416 22.9121 29.0488 22.6484 29.9805 22.6484C31.4512 22.6484 32.3477 23.3867 32.8047 24.9688L32.9395 25.4316L32.957 30.9219L32.9746 36.418H36.0156H39.0625V30.7637C39.0625 27.166 39.0391 24.8984 38.998 24.5352C38.7754 22.4551 38.1309 20.9258 36.9883 19.7305C36.1797 18.8867 35.2539 18.3594 34.0293 18.0371C33.5488 17.9082 33.3086 17.8848 32.4121 17.8672C31.6094 17.8496 31.2578 17.8672 30.9473 17.9375Z" fill="#8A8A8D"/>
<path d="M11.2305 27.3359V36.418H14.2773H17.3242V27.3359V18.2539H14.2773H11.2305V27.3359Z" fill="#8A8A8D"/>
</g>
<defs>
<clipPath id="clip0_0_1">
<rect width="1440" height="5161" fill="white" transform="translate(-130 -2029)"/>
</clipPath>
</defs>
</svg>
