<svg width="22" height="26" viewBox="0 0 22 26" fill="none" xmlns="http://www.w3.org/2000/svg">
<rect width="22" height="26" fill="#F5F5F5"/>
<g clip-path="url(#clip0_0_1)">
<rect width="1440" height="5161" transform="translate(-957 -967)" fill="white"/>
<path d="M18.0713 18.8213L12.7675 24.125C12.5356 24.3572 12.2601 24.5414 11.957 24.667C11.6538 24.7927 11.3288 24.8574 11.0006 24.8574C10.6724 24.8574 10.3475 24.7927 10.0443 24.667C9.74113 24.5414 9.4657 24.3572 9.23375 24.125L3.92875 18.8213C2.53028 17.4227 1.57792 15.6409 1.19211 13.7011C0.806304 11.7613 1.00437 9.75064 1.76126 7.92341C2.51815 6.09618 3.79988 4.53443 5.44436 3.43563C7.08884 2.33684 9.02221 1.75037 11 1.75037C12.9778 1.75037 14.9112 2.33684 16.5557 3.43563C18.2001 4.53443 19.4819 6.09618 20.2387 7.92341C20.9956 9.75064 21.1937 11.7613 20.8079 13.7011C20.4221 15.6409 19.4697 17.4227 18.0713 18.8213V18.8213Z" stroke="#444BAB" stroke-width="2" stroke-linecap="round" stroke-linejoin="round"/>
<path d="M13.6517 14.4017C14.3549 13.6984 14.75 12.7446 14.75 11.75C14.75 10.7554 14.3549 9.80161 13.6517 9.09835C12.9484 8.39509 11.9946 8 11 8C10.0054 8 9.05161 8.39509 8.34835 9.09835C7.64509 9.80161 7.25 10.7554 7.25 11.75C7.25 12.7446 7.64509 13.6984 8.34835 14.4017C9.05161 15.1049 10.0054 15.5 11 15.5C11.9946 15.5 12.9484 15.1049 13.6517 14.4017Z" stroke="#444BAB" stroke-width="2" stroke-linecap="round" stroke-linejoin="round"/>
</g>
<defs>
<clipPath id="clip0_0_1">
<rect width="1440" height="5161" fill="white" transform="translate(-957 -967)"/>
</clipPath>
</defs>
</svg>
